<svg xmlns="http://www.w3.org/2000/svg" viewBox="0 0 73 101" version="1.1" width="73" height="101">
	<path d="M 36 6.042708247385064 C 19.463151164621785 10.379623153103083, 11.711054650613464 11.950991482238274, 6.75 11.9717525445179 L 0 12 0 56.01232084261894 L 0 100.02464168523788 36.75 99.76232084261895 L 73.5 99.5 73.76155185131387 55.5 L 74.02310370262775 11.5 68.51155185131387 11.842549715539361 L 63 12.185099431078722 63 6.092549715539361 C 63 0.4199927652416058, 62.84489519726308 0.004891364576120438, 60.75 0.07095570286716411 C 59.5125 0.10998133944410438, 48.375 2.7972699844771594, 36 6.042708247385064 M 0.4597369985706841 56 C 0.45973699857068406 80.47500000000001, 0.5899053668322176 90.48750000000004, 0.7490000391518697 78.25000000000006 C 0.9080947114715219 66.0125000000001, 0.9080947114715219 45.9875000000001, 0.7490000391518699 33.750000000000064 C 0.5899053668322178 21.51250000000003, 0.4597369985706842 31.52499999999999, 0.4597369985706841 56 M 70 56 L 70 97 42.5 97 L 15 97 15 56 L 15 15 42.5 15 L 70 15 70 56 M 23 31.42327471805651 C 23 41.99865970823633, 23.176826433314215 43.05669571213959, 25.38231088165292 45.677765056615506 C 27.76061715465464 48.50422147014186, 27.76374518112158 48.54265890713778, 27.243149764885572 68.5439006503633 C 26.666744469421133 90.68935429268517, 26.98374836273795 92.00000000000006, 32.9164410093167 92 C 38.87951306600331 91.99999999999994, 39.30218445804264 90.231677331976, 38.49360615159203 68.66691493641287 C 37.76609449553646 49.2641979977049, 37.76840722735383 49.23226625251762, 40.13253321727257 46.038350288922835 C 42.2902946077266 43.12323130626806, 42.5 41.85050856088712, 42.5 31.66996047001561 C 42.5 22.40777338555729, 42.24380750173488 20.5, 41 20.5 C 39.77508791533047 20.5, 39.447513985207785 22.51420499001041, 39.21380414114613 31.483061474678188 C 38.95549236408819 41.39604253045666, 38.69985406138154 42.71134843932843, 36.589990879712495 44.98306147467819 L 34.25237347713274 47.5 35.03822891656226 67 C 35.86556717963182 87.52934333771088, 35.436774687813866 90.1490557927173, 31.496685012049895 88.63710152028969 C 29.993580764083887 88.06030630073022, 29.906026549692577 86.0770304023064, 30.56168402107499 67.45748220333579 C 31.272041338250585 47.28455215534099, 31.246460549135854 46.878269509158834, 29.142540469025985 44.918169789911445 C 27.23176664868371 43.13801318405664, 27 41.85341333309023, 27 33.04283232081626 C 27 22.331258307896128, 26.534030327243634 20, 24.39301119581567 20 C 23.283626265745834 20, 23 22.325854063918023, 23 31.42327471805651 M 28.455552486364923 21.255232541101883 C 28.15552782956066 22.037084263939597, 28.04279116052681 26.23212544020439, 28.205026555178588 30.57754626613475 C 28.453598063141918 37.23545103318764, 28.781361759672482 38.532048280668434, 30.288594466335336 38.81991248039675 C 31.91873416958443 39.13125051004988, 32.05162183590733 38.342051434423695, 31.788594466335336 29.911646979197126 C 31.592228555082883 23.61783787571462, 31.100695088012134 20.52945953679392, 30.25052593118633 20.24773217795746 C 29.563315193338816 20.02000565484918, 28.75557714316918 20.473380818264168, 28.455552486364923 21.255232541101883 M 34 29.5 C 34 37.27777777777777, 34.271929824561404 39, 35.5 39 C 36.728070175438596 39, 37 37.27777777777777, 37 29.5 C 37 21.722222222222225, 36.728070175438596 20, 35.5 20 C 34.271929824561404 20, 34 21.722222222222225, 34 29.5 M 55.89429183027609 24.25 C 47.62492670094753 35.520670358130815, 44.457899669749445 55.40560841740719, 50.282451618932384 59.48528340675736 C 52.20519816637784 60.832027511524586, 52.241012047327416 61.392547597096, 51.222167171831224 74.19269372247464 C 50.016064239245466 89.34543596091088, 50.708635828718705 92, 55.868065417742216 91.99999999999997 C 61.967183229622556 91.99999999999997, 62 91.79754886820233, 62 54.171259328415935 C 62 16.194613559271204, 61.9574767499729 15.986226725806553, 55.89429183027609 24.25 M 57.611148399147 87.81742302942445 C 54.45447286833747 90.97409856023422, 53.73283236783299 88.19858281775916, 54.43887952609813 75.6164972355483 C 54.81283582388073 68.95242375599673, 55.34577175354503 62.717612834193, 55.62318159201878 61.761361853762224 C 55.928630670387484 60.70845766597735, 55.116385442566795 59.08559586707385, 53.56378155825826 57.646691149672435 C 51.36519752172557 55.60911223225316, 51 54.42256634761726, 51 49.31683052333801 C 51 42.40354398665971, 53.012484219770215 34.976375844040334, 56.23413713783019 30 L 58.5 26.5 58.76518705285241 56.44909866143325 C 58.984685051197346 81.23826969263688, 58.7858558308951 86.64271559767624, 57.611148399147 87.81742302942445" stroke="none" fill="#003366" fill-rule="evenodd" data-fill-layer-id="trace-color"/>
</svg>