<svg xmlns="http://www.w3.org/2000/svg" viewBox="0 0 101 101" version="1.1" width="101" height="101">
	<path d="M 30.331398693146955 4.25 C 20.969392843072818 12.854942723763804, 6.0000000000000036 29.948860775761844, 6.000000000000002 32.03462291098302 C 6.000000000000001 33.18659638516567, 4.65 35.265070244893415, 3 36.653453710378 L 0 39.177787283986355 0 69.58889364199318 L 0 100 41 100 L 82 100 82 81.9503400731158 C 82 68.02791374929703, 81.66395787684078 63.25084633626796, 80.53038460444134 61.05875734590272 C 79.10655752671245 58.305379388545994, 74.69536186222496 55.999999999999986, 70.8507767347733 56 C 69.14443464998257 56, 69 54.98314346767777, 69 42.97006284259819 L 69 29.940125685196374 59.146258218985515 19.22006284259819 C 45.54971511384686 4.428139148188642, 40.56260116857672 0, 37.5 0 C 35.89823824519295 0, 33.24193850160054 1.574822399381505, 30.331398693146955 4.25 M 51.96771159219816 17.25 L 64.93908608191353 30.5 64.96954304095676 43.5 L 65 56.5 51.5 56.5 L 38 56.5 38 48.20454545454544 C 38 40.73035914702576, 37.75699460356995 39.666085512660835, 35.54545454545453 37.45454545454544 C 33.22285850632305 35.131949415413985, 32.47025813692474 35, 21.54545454545453 35 C 6.329656631304161 35, 6.332245773874584 34.644673074653014, 21.664514863209188 18.66048392936521 C 34.79570596178014 4.970961458847013, 35.85702474689709 4, 37.68929818634628 4 C 38.40816959022136 4, 44.83345562285471 9.962499999999999, 51.96771159219816 17.25 M 84.1142922147126 17.632500024758883 C 75.95752416218896 23.345722759853402, 76.15414500274125 44.12354273318661, 84.41620550353205 49.53705269082734 L 87 51.230019866967936 87 75.61500993348398 C 87 99.33333333333334, 87.05467844480134 100, 89 100 C 90.91568070425251 100, 91 99.33333333333333, 91 84.187091204766 L 91 68.37418240953201 94 65.5 C 98.50708158092725 61.18194180059106, 97.39294198717342 57.52444214052809, 92.82874067158406 61.65498756211209 C 91.07626456124164 63.24095664487054, 91 63.05808799177598, 91 57.26999749559606 C 91 51.93916800966609, 91.29201246484281 51.038685951411345, 93.48713724077523 49.60038495716946 C 102.07309282528462 43.97465078974791, 102.26720107557138 23.503126443426908, 93.79088221194141 17.566081607805003 C 90.90636055155538 15.54568399151, 87.05590699661042 15.572112829535287, 84.1142922147126 17.632500024758883 M 92.9486002030487 22.17520368335985 C 96.9745347259232 26.49653713425968, 97.10862977402208 40.335814670422366, 93.16279955622409 44.281644888220356 L 91 46.44444444444446 91 40.72222222222223 C 91 35.71547809827827, 90.75616971407382 35, 89.04990385598789 35 C 87.37731189585581 35, 87.05713054702987 35.81824122477739, 86.79990385598789 40.75 L 86.5 46.5 84.25373806043756 43 C 77.68568678290644 32.76602903406857, 85.46255911974619 14.1398818060959, 92.9486002030487 22.17520368335985 M 32.799999999999976 40.199999999999974 C 33.45999999999999 40.85999999999996, 34 42.659999999999954, 34 44.199999999999974 L 34 47 25.923076923076923 47 C 18.329284750337383 47, 17.671306471306472 47.174847374847374, 14.923076923076923 49.92307692307692 L 12 52.84615384615385 12 74.92307692307692 L 12 97 8 97 L 4 97 4 68.66666666666667 C 4 53.083333333333336, 4.3 40.03333333333334, 4.666666666666666 39.66666666666667 C 5.907549085432473 38.42578424790086, 31.51116077277939 38.911160772779446, 32.799999999999976 40.199999999999974 M 34 61.5 L 34 72 25 72 L 16 72 16 62.7 C 16 56.8, 16.438709677419354 52.961290322580645, 17.2 52.2 C 17.92820512820513 51.47179487179487, 21.46666666666667 51, 26.2 51 L 34 51 34 61.5 M 75.77749375659457 61.55670396864905 C 77.92546843175698 63.061203994826485, 78 63.68160000792527, 78 80.05670396864906 L 78 97 73.5 97 L 69 97 69 87.58178746823576 C 68.99999999999999 82.40177057576543, 68.72046839599916 77.43512725319258, 68.37881865777595 76.54480230696275 C 66.51935132694982 71.69910811751718, 54.07985608598912 70.30800205817462, 49.305763701326335 74.41186670096451 C 46.63013123638354 76.71187109661784, 46.48405886441331 77.29162072201407, 46.15629267169015 86.91186670096451 L 45.8125853433803 97 41.90629267169015 97 L 38 97 38 78.5 L 38 60 55.77749375659457 60 C 70.24904684951628 60, 73.96828951548153 60.28948799092385, 75.77749375659457 61.55670396864905 M 34 86.5 L 34 97 25 97 L 16 97 16 86.5 L 16 76 25 76 L 34 76 34 86.5 M 63.800000000000004 77.2 C 64.46000000000001 77.86, 65 79.885, 65 81.7 C 65 84.7, 64.72727272727272 85, 62 85 C 60.06271775382832 85, 59 85.50748751895078, 59 86.43261232944293 C 59 88.03870004797551, 62.436814528404255 89.46610175216621, 63.99105144070715 88.50553051379332 C 64.61329467291533 88.12096304701907, 65 89.62932581642191, 65 92.44098300562504 L 65 97 57.403470281248886 97 L 49.806940562497765 97 50.153470281248886 87.46251380833664 C 50.411707055647796 80.35510126408028, 50.8821877586881 77.68368852324491, 52 76.97782658285371 C 54.145204248156865 75.62320012844815, 62.378213328514214 75.7782133285142, 63.800000000000004 77.2" stroke="none" fill="#003366" fill-rule="evenodd" data-fill-layer-id="trace-color"/>
</svg>